<svg width="137" height="48" viewBox="0 0 137 48" fill="none" xmlns="http://www.w3.org/2000/svg">
<path d="M0 10C0 4.47715 4.47715 0 10 0H122.222C129.298 0 134.136 7.14927 131.505 13.7186L120.288 41.7186C118.768 45.5127 115.092 48 111.005 48H10C4.47715 48 0 43.5228 0 38V10Z" fill="url(#paint0_linear_977_1120)"/>
<path d="M90.8916 30.1536C89.778 30.1536 88.9332 29.904 88.3572 29.4048C87.794 28.8928 87.5124 28.1504 87.5124 27.1776V22.1856H85.458V19.9968H87.5124V17.4432L90.1428 16.848V19.9968H93.0036V22.1856H90.1428V26.64C90.1428 27.1008 90.2452 27.4336 90.45 27.6384C90.6548 27.8304 91.0132 27.9264 91.5252 27.9264C91.7812 27.9264 92.0116 27.9136 92.2164 27.888C92.434 27.8496 92.6708 27.7856 92.9268 27.696V29.8656C92.658 29.9552 92.3252 30.0256 91.9284 30.0768C91.5316 30.128 91.186 30.1536 90.8916 30.1536Z" fill="#0C1219"/>
<path d="M78.3125 30V19.9968H80.9429V21.1104C81.2629 20.6752 81.6469 20.3424 82.0949 20.112C82.5429 19.8816 83.0485 19.7664 83.6117 19.7664C84.0981 19.7792 84.4629 19.856 84.7061 19.9968V22.3008C84.5141 22.2112 84.3029 22.1472 84.0725 22.1088C83.8421 22.0576 83.6053 22.032 83.3621 22.032C82.8501 22.032 82.3829 22.16 81.9605 22.416C81.5381 22.672 81.1989 23.0368 80.9429 23.5104V30H78.3125Z" fill="#0C1219"/>
<path d="M71.9584 30.192C70.96 30.192 70.0512 29.9616 69.232 29.5008C68.4256 29.04 67.7856 28.4192 67.312 27.6384C66.8384 26.8576 66.6016 25.9808 66.6016 25.008C66.6016 24.0352 66.8256 23.1584 67.2736 22.3776C67.7344 21.5968 68.3552 20.976 69.136 20.5152C69.9168 20.0544 70.7872 19.824 71.7472 19.824C72.7072 19.824 73.5584 20.0608 74.3008 20.5344C75.0432 21.008 75.6256 21.648 76.048 22.4544C76.4832 23.2608 76.7008 24.176 76.7008 25.2V25.8912H69.2896C69.4048 26.288 69.5904 26.6464 69.8464 26.9664C70.1152 27.2864 70.4416 27.536 70.8256 27.7152C71.2224 27.8944 71.6448 27.984 72.0928 27.984C72.5408 27.984 72.9504 27.9136 73.3216 27.7728C73.7056 27.632 74.032 27.4336 74.3008 27.1776L76.0288 28.752C75.4144 29.2512 74.7808 29.616 74.128 29.8464C73.488 30.0768 72.7648 30.192 71.9584 30.192ZM69.2512 24.0096H74.1088C74.0192 23.6128 73.8528 23.2672 73.6096 22.9728C73.3792 22.6656 73.0976 22.4288 72.7648 22.2624C72.4448 22.0832 72.0864 21.9936 71.6896 21.9936C71.28 21.9936 70.9088 22.0768 70.576 22.2432C70.256 22.4096 69.9808 22.6464 69.7504 22.9536C69.52 23.248 69.3536 23.6 69.2512 24.0096Z" fill="#0C1219"/>
<path d="M54.9307 33.9168V19.9968H57.5227V20.8224C58.3419 20.1824 59.2891 19.8624 60.3643 19.8624C61.3115 19.8624 62.1691 20.0928 62.9371 20.5536C63.7051 21.0144 64.3131 21.6352 64.7611 22.416C65.2219 23.184 65.4523 24.048 65.4523 25.008C65.4523 25.968 65.2219 26.8384 64.7611 27.6192C64.3003 28.3872 63.6795 29.0016 62.8987 29.4624C62.1179 29.9104 61.2475 30.1344 60.2875 30.1344C59.7883 30.1344 59.3083 30.0704 58.8475 29.9424C58.3867 29.8016 57.9579 29.6032 57.5611 29.3472V33.9168H54.9307ZM59.9419 27.9072C60.4923 27.9072 60.9851 27.7792 61.4203 27.5232C61.8683 27.2672 62.2203 26.9216 62.4763 26.4864C62.7323 26.0512 62.8603 25.5584 62.8603 25.008C62.8603 24.4576 62.7323 23.9648 62.4763 23.5296C62.2203 23.0816 61.8683 22.736 61.4203 22.4928C60.9851 22.2368 60.4923 22.1088 59.9419 22.1088C59.4555 22.1088 59.0075 22.192 58.5979 22.3584C58.2011 22.512 57.8555 22.7488 57.5611 23.0688V26.9664C57.8427 27.248 58.1883 27.4784 58.5979 27.6576C59.0203 27.824 59.4683 27.9072 59.9419 27.9072Z" fill="#0C1219"/>
<path d="M43.2061 30L47.0461 24.912L43.3021 19.9968H46.3549L48.5629 22.9728L50.7517 19.9968H53.7085L50.0221 24.8736L53.9389 30H50.8669L48.5053 26.8128L46.1437 30H43.2061Z" fill="#0C1219"/>
<path d="M32.21 30V16.56H42.5396V18.9792H34.994V22.0512H39.9668V24.3936H34.994V27.5808H42.6164V30H32.21Z" fill="#0C1219"/>
<defs>
<linearGradient id="paint0_linear_977_1120" x1="0" y1="24" x2="137" y2="24" gradientUnits="userSpaceOnUse">
<stop stop-color="#2193B0"/>
<stop offset="1" stop-color="#6DD5ED"/>
</linearGradient>
</defs>
</svg>
