<svg width="270" height="77" viewBox="0 0 270 77" fill="none" xmlns="http://www.w3.org/2000/svg">
<g clip-path="url(#clip0_570_630)">
<path d="M35.0102 31.0601H33.7519L29.0991 22.7898H30.3612L35.0102 31.0601Z" fill="#474747"/>
<path d="M75.536 10.4393C75.3345 10.0146 75.1292 9.59751 74.8898 9.1766L74.4222 8.33478L52.7319 36.9112L52.4886 37.2259L63.6759 58.9388L63.6227 59.3028H51.5649L44.3918 45.2952L32.3834 59.3028H20.4891L39.4881 37.4875L28.6543 18.2584L28.7152 17.8906H40.9516L47.5127 30.0249L67.5722 2.04388L66.888 1.72914C66.4965 1.53955 66.1049 1.37649 65.6982 1.21343C63.6227 0.417118 61.4255 0 59.1751 0H18.0258C8.0778 0 0 8.05796 0 17.974V59.0298C0 68.942 8.0778 77.0038 18.0258 77.0038H59.1751C69.1118 77.0038 77.201 68.9458 77.201 59.0298V17.974C77.201 15.3234 76.6346 12.7904 75.536 10.4431V10.4393ZM75.9351 59.0298C75.9351 68.2481 68.4161 75.7411 59.1751 75.7411H18.0258C8.77344 75.7411 1.26584 68.2481 1.26584 59.0298V17.974C1.26584 8.75569 8.77724 1.26273 18.0258 1.26273H59.1751C61.2088 1.26273 63.1969 1.62676 65.0786 2.34724L47.7369 26.5477L42.0616 16.0401H27.168L27.1566 16.1046L26.7309 18.5883L27.0312 19.1192L29.1067 22.7898L33.7595 31.0601L37.2605 37.2638L18.8697 58.3245L18.7405 58.461L18.387 61.1457H33.2349L44.0193 48.5867L50.4435 61.1457H65.2344L65.5993 58.6278L54.6782 37.4041L74.5096 11.2887C75.4485 13.3933 75.9351 15.6268 75.9351 17.974V59.0298Z" fill="#00C4A7"/>
<path d="M75.9349 17.974V59.0298C75.9349 68.2481 68.4159 75.7411 59.1749 75.7411H18.0256C8.77322 75.7411 1.26562 68.2481 1.26562 59.0298V17.974C1.26562 8.75569 8.77703 1.26273 18.0256 1.26273H59.1749C61.2086 1.26273 63.1967 1.62676 65.0783 2.34724L47.7367 26.5477L42.0614 16.0401H27.1678L27.1564 16.1046L26.7306 18.5883L27.031 19.1192L29.1065 22.7898H15.7296L5.8044 61.1343H15.4369L21.0059 45.1208H27.3237L33.9189 37.7681H21.9106L23.9329 31.0563H33.7593L37.2603 37.26L18.8695 58.3207L18.7403 58.4572L18.3868 61.1419H33.2347L44.019 48.5829L50.4433 61.1419H65.2342L65.5991 58.6241L54.6779 37.4003L74.5094 11.2849C75.4483 13.3895 75.9349 15.623 75.9349 17.9702V17.974Z" fill="#00C4A7"/>
<path d="M169.01 57.3917C169.451 55.071 167.228 54.8624 166.049 54.8624H163.309L161.537 64.0542H164.886C165.745 64.0542 168.353 63.838 168.805 61.4453C169.022 60.3608 168.501 59.5759 167.399 59.2763C168.338 58.8971 168.877 58.1311 169.007 57.3955L169.01 57.3917ZM167.368 61.4415C167.178 62.4995 166.205 62.9128 165.015 62.9128H163.141L163.708 59.9513H165.582C166.783 59.9513 167.581 60.2812 167.365 61.4415H167.368ZM167.57 57.3917C167.368 58.4155 166.517 58.8212 165.278 58.8212H163.94L164.483 55.9962H165.84C167.064 55.9962 167.775 56.3754 167.57 57.3955V57.3917Z" fill="#DFDFDF"/>
<path d="M175.648 57.4789L175.005 60.8727C174.587 62.6132 173.591 63.1327 172.766 63.1327C172.055 63.1327 171.5 62.8673 171.717 61.7449L172.527 57.4827H171.075L170.25 61.8093C169.961 63.3489 170.539 64.2514 172.021 64.2514C173.245 64.2514 174.146 63.6712 174.637 62.7649L174.393 64.0542H175.845L177.096 57.4789H175.644H175.648Z" fill="#DFDFDF"/>
<path d="M179.365 55.0482L179.115 56.4323H180.772L181.023 55.0482H179.365ZM178.997 57.4789L177.746 64.0542H179.198L180.449 57.4789H178.997Z" fill="#DFDFDF"/>
<path d="M183.041 54.7297L181.262 64.0504H182.714L184.493 54.7297H183.041Z" fill="#DFDFDF"/>
<path d="M187.618 58.6165H189.477L189.678 57.4789H187.846L188.238 55.3743L186.884 55.5033L186.504 57.4789H185.288L185.086 58.6165H186.288L185.603 62.1961C185.337 63.5195 185.957 64.0504 187.272 64.0504H188.42L188.637 62.9128H187.801C187.071 62.9128 186.812 62.7914 186.968 61.9686L187.611 58.6165H187.618Z" fill="#DFDFDF"/>
<path d="M200.767 55.9924L200.98 54.8586H194.875L193.119 64.0504H194.571L195.38 59.8489H199.315L199.528 58.7037H195.597L196.125 55.9924H200.767Z" fill="#DFDFDF"/>
<path d="M204.382 57.2817C202.614 57.2817 200.691 58.4041 200.223 60.7855C199.771 63.1706 201.284 64.2514 203.044 64.2514C204.804 64.2514 206.723 63.1706 207.179 60.7855C207.632 58.4041 206.142 57.2817 204.382 57.2817ZM205.746 60.7817C205.48 62.1847 204.648 63.1289 203.256 63.1289C201.865 63.1289 201.409 62.1847 201.675 60.7817C201.93 59.3825 202.789 58.4003 204.154 58.4003C205.518 58.4003 206.009 59.3862 205.743 60.7817H205.746Z" fill="#DFDFDF"/>
<path d="M212.562 57.4789C211.692 57.4789 210.867 57.9605 210.365 58.8667L210.631 57.4789H209.179L207.928 64.0542H209.38L209.947 61.0737C210.262 59.3483 211.034 58.6165 212.212 58.6165H213.261L213.463 57.4789H212.566H212.562Z" fill="#DFDFDF"/>
<path d="M224.244 57.441C224.582 55.6739 223.533 54.6539 221.499 54.6539C219.58 54.6539 218.097 55.7004 217.835 57.0238C217.591 58.3359 218.352 59.1436 220.465 59.6327C222.009 59.974 222.723 60.3684 222.514 61.5022C222.332 62.4198 221.488 63.1289 220.096 63.1289C218.622 63.1289 217.823 62.2454 218.203 60.357L216.736 60.4935C216.269 62.9659 217.58 64.2514 219.887 64.2514C222.195 64.2514 223.655 63.1062 223.97 61.4529C224.297 59.7389 223.092 59.0298 221.009 58.552C219.656 58.2411 219.135 57.8619 219.291 57.0276C219.427 56.2086 220.252 55.7801 221.286 55.7801C222.32 55.7801 222.997 56.4133 222.78 57.5813L224.248 57.4448L224.244 57.441Z" fill="#DFDFDF"/>
<path d="M230.946 57.4789L230.299 60.8727C229.874 62.6132 228.874 63.1327 228.06 63.1327C227.357 63.1327 226.794 62.8673 227.011 61.7449L227.821 57.4827H226.369L225.532 61.8093C225.255 63.3489 225.837 64.2514 227.304 64.2514C228.528 64.2514 229.429 63.6712 229.934 62.7649L229.691 64.0542H231.151L232.401 57.4789H230.949H230.946Z" fill="#DFDFDF"/>
<path d="M237.062 58.4003C238.187 58.4003 238.552 59.0298 238.579 60.0385L240.046 59.9095C240.122 57.968 239.012 57.2779 237.275 57.2779C235.538 57.2779 233.584 58.4117 233.131 60.7931C232.679 63.1669 234.165 64.2476 235.937 64.2476C237.708 64.2476 239.035 63.6067 239.704 61.6918L238.29 61.5628C237.883 62.5867 237.256 63.1289 236.165 63.1289C234.774 63.1289 234.317 62.1089 234.568 60.7969C234.823 59.5076 235.682 58.4003 237.062 58.4003Z" fill="#DFDFDF"/>
<path d="M244.9 58.4003C246.025 58.4003 246.379 59.0298 246.417 60.0385L247.884 59.9095C247.96 57.968 246.85 57.2779 245.117 57.2779C243.383 57.2779 241.426 58.4117 240.966 60.7931C240.513 63.1669 242.003 64.2476 243.771 64.2476C245.539 64.2476 246.869 63.6067 247.542 61.6918L246.124 61.5628C245.717 62.5867 245.09 63.1289 243.999 63.1289C242.608 63.1289 242.152 62.1089 242.403 60.7969C242.657 59.5076 243.516 58.4003 244.896 58.4003H244.9Z" fill="#DFDFDF"/>
<path d="M252.925 57.2817C251.222 57.2817 249.26 58.389 248.804 60.7969C248.333 63.2048 249.865 64.2514 251.583 64.2514C253.301 64.2514 254.666 63.4588 255.122 62.1468L253.734 62.0103C253.533 62.4502 253.073 63.1327 251.8 63.1327C250.526 63.1327 249.967 62.2151 250.192 61.0775H255.377L255.411 60.8007C255.882 58.3927 254.628 57.2855 252.921 57.2855L252.925 57.2817ZM254.175 60.1029H250.382C250.511 59.3483 251.408 58.4041 252.693 58.4041C253.978 58.4041 254.312 59.3483 254.172 60.1029H254.175Z" fill="#DFDFDF"/>
<path d="M262.633 59.3332C262.884 58.0591 261.824 57.2817 260.254 57.2817C258.684 57.2817 257.323 57.9832 257.095 59.2118C256.878 60.2584 257.65 60.9258 258.752 61.0737L259.813 61.2026C260.508 61.2898 261.139 61.4794 261.014 62.1734C260.885 62.8294 260.128 63.1327 259.231 63.1327C258.334 63.1327 257.425 62.6132 257.627 61.5325L256.22 61.6539C255.882 63.4057 257.308 64.2514 259.014 64.2514C260.721 64.2514 262.211 63.474 262.455 62.1582C262.706 60.85 261.618 60.2812 260.448 60.1409L259.497 60.0005C258.767 59.9133 258.437 59.6896 258.535 59.2308C258.638 58.6771 259.273 58.4003 260.041 58.4003C260.9 58.4003 261.367 58.7644 261.227 59.4735L262.633 59.3332Z" fill="#DFDFDF"/>
<path d="M269.966 59.3332C270.209 58.0591 269.145 57.2817 267.578 57.2817C266.012 57.2817 264.644 57.9832 264.42 59.2118C264.203 60.2584 264.975 60.9258 266.077 61.0737L267.137 61.2026C267.841 61.2898 268.464 61.4794 268.335 62.1734C268.213 62.8294 267.449 63.1327 266.556 63.1327C265.663 63.1327 264.746 62.6132 264.948 61.5325L263.545 61.6539C263.203 63.4057 264.629 64.2514 266.339 64.2514C268.05 64.2514 269.536 63.474 269.776 62.1582C270.03 60.85 268.955 60.2812 267.768 60.1409L266.833 60.0005C266.085 59.9133 265.758 59.6896 265.86 59.2308C265.963 58.6771 266.605 58.4003 267.362 58.4003C268.221 58.4003 268.692 58.7644 268.552 59.4735L269.966 59.3332Z" fill="#DFDFDF"/>
<path d="M115.499 24.697V18.2734H92.5962V48.1769H101.898V35.9554H113.515V29.9223H101.898V24.697H115.495H115.499Z" fill="#DFDFDF"/>
<path d="M133.654 26.5098V36.9339C133.654 38.9057 133.339 40.2746 132.704 41.033C132.069 41.7914 131.256 42.1744 130.26 42.1744C129.348 42.1744 128.64 41.89 128.131 41.3174C127.629 40.7449 127.378 39.7855 127.378 38.4204V26.506H119.012V40.2936C119.012 43.1376 119.666 45.2421 120.962 46.6035C122.266 47.9686 124.064 48.6549 126.348 48.6549C128.07 48.6549 129.515 48.3478 130.697 47.7373C131.879 47.1268 133.046 46.0991 134.202 44.6582V48.1696H141.968V26.506H133.651L133.654 26.5098Z" fill="#DFDFDF"/>
<path d="M166.726 37.7416C166.011 36.7102 164.977 35.9139 163.628 35.3565C162.278 34.8028 160.218 34.3667 157.451 34.0558C155.626 33.8359 154.436 33.5894 153.896 33.3202C153.349 33.0471 153.075 32.649 153.075 32.1143C153.075 31.6403 153.292 31.2346 153.718 30.9047C154.151 30.571 154.831 30.4041 155.774 30.4041C156.717 30.4041 157.492 30.6203 158.142 31.0601C158.618 31.3862 158.963 31.8944 159.165 32.5883L167.06 31.8109C166.513 30.3965 165.829 29.2741 165.004 28.4437C164.179 27.617 163.149 27.0065 161.917 26.6121C160.685 26.2178 158.773 26.0206 156.185 26.0206C153.596 26.0206 151.775 26.2747 150.315 26.7866C148.852 27.2947 147.712 28.0645 146.879 29.0997C146.047 30.1311 145.632 31.3635 145.632 32.7855C145.632 34.0899 146.016 35.2541 146.788 36.2703C147.559 37.2904 148.506 38.0146 149.627 38.4393C150.753 38.8716 152.76 39.3304 155.649 39.8386C157.584 40.1761 158.777 40.4643 159.226 40.6918C159.853 41.0217 160.168 41.4843 160.168 42.0758C160.168 42.6067 159.925 43.0466 159.45 43.403C158.838 43.877 157.971 44.1159 156.854 44.1159C155.831 44.1159 155.014 43.9036 154.402 43.4827C153.79 43.0618 153.311 42.3602 152.969 41.3819L144.708 42.1555C145.184 44.2373 146.263 45.8413 147.951 46.9713C149.631 48.1013 152.456 48.6625 156.42 48.6625C159.23 48.6625 161.446 48.3099 163.076 47.6121C164.707 46.9144 165.901 45.974 166.654 44.7909C167.41 43.6078 167.79 42.3944 167.79 41.143C167.79 39.8917 167.433 38.773 166.714 37.7416H166.726Z" fill="#DFDFDF"/>
<path d="M171.238 26.5098V48.1734H179.559V26.5098H171.238ZM171.238 18.2698V23.9198H179.559V18.2698H171.238Z" fill="#DFDFDF"/>
<path d="M205.279 29.7974C203.055 27.2795 199.767 26.0244 195.422 26.0244C191.621 26.0244 188.602 27.0975 186.364 29.2362C184.128 31.3749 183.011 34.1013 183.011 37.4041C183.011 40.9496 184.334 43.8202 186.979 46.0119C189.131 47.779 191.951 48.6625 195.441 48.6625C199.353 48.6625 202.42 47.6008 204.629 45.4735C206.845 43.3424 207.951 40.6121 207.951 37.2828C207.951 34.3212 207.062 31.8261 205.279 29.7974ZM198.436 41.6891C197.665 42.5991 196.684 43.0542 195.479 43.0542C194.274 43.0542 193.309 42.5878 192.529 41.6663C191.746 40.7449 191.355 39.3153 191.355 37.3814C191.355 35.4475 191.746 34.0596 192.541 33.1306C193.328 32.1977 194.335 31.7313 195.544 31.7313C196.688 31.7313 197.65 32.1901 198.429 33.1078C199.204 34.0255 199.592 35.4247 199.592 37.3017C199.592 39.3153 199.208 40.7714 198.436 41.6891Z" fill="#DFDFDF"/>
<path d="M232.131 28.0758C230.831 26.7107 229.025 26.0244 226.726 26.0244C225.023 26.0244 223.574 26.3353 222.392 26.9534C221.202 27.5715 220.031 28.6029 218.872 30.0439V26.5135H211.125V48.1771H219.446V37.7719C219.446 35.8039 219.758 34.435 220.389 33.6766C221.016 32.9106 221.833 32.5352 222.841 32.5352C223.753 32.5352 224.46 32.8158 224.966 33.377C225.471 33.942 225.722 34.9052 225.722 36.2627V48.1771H234.081V34.4085C234.081 31.5531 233.427 29.4372 232.131 28.0758Z" fill="#DFDFDF"/>
<path d="M258.166 32.7551L267.491 18.2698H257.395L252.232 27.4729L246.926 18.2698H236.723L246.124 32.5921L235.784 48.1734H246.128L252.046 38.5683L257.965 48.1734H268.369L258.163 32.7551H258.166Z" fill="#DFDFDF"/>
</g>
<defs>
<clipPath id="clip0_570_630">
<rect width="270" height="77" fill="white"/>
</clipPath>
</defs>
</svg>
