<svg width="191" height="56" viewBox="0 0 191 56" fill="none" xmlns="http://www.w3.org/2000/svg">
<g clip-path="url(#clip0_579_861)">
<path d="M24.7665 22.6857H23.8764L20.585 16.7783H21.4777L24.7665 22.6857Z" fill="#474747"/>
<path d="M53.4347 7.95666C53.2922 7.6533 53.147 7.35536 52.9776 7.05471L52.6468 6.45341L37.3029 26.8651L37.1308 27.0899L45.0448 42.5991L45.0071 42.8592H36.4774L31.4031 32.8537L22.9083 42.8592H14.4941L27.9342 27.2768L20.2703 13.5417L20.3133 13.279H28.9695L33.6108 21.9464L47.8011 1.95991L47.3171 1.7351C47.0401 1.59967 46.7631 1.48321 46.4754 1.36674C45.0071 0.797942 43.4528 0.5 41.8609 0.5H12.7516C5.71429 0.5 0 6.25569 0 13.3386V42.6641C0 49.7443 5.71429 55.5027 12.7516 55.5027H41.8609C48.8902 55.5027 54.6125 49.747 54.6125 42.6641V13.3386C54.6125 11.4453 54.2119 9.63597 53.4347 7.95937V7.95666ZM53.7171 42.6641C53.7171 49.2486 48.3981 54.6008 41.8609 54.6008H12.7516C6.2064 54.6008 0.895464 49.2486 0.895464 42.6641V13.3386C0.895464 6.75406 6.20909 1.40195 12.7516 1.40195H41.8609C43.2996 1.40195 44.706 1.66197 46.0371 2.1766L33.7695 19.4626L29.7547 11.9572H19.2189L19.2108 12.0033L18.9096 13.7774L19.122 14.1566L20.5903 16.7784L23.8817 22.6858L26.3584 27.117L13.3486 42.1603L13.2572 42.2579L13.0071 44.1755H23.5106L31.1395 35.2048L35.6841 44.1755H46.1473L46.4055 42.377L38.6797 27.2172L52.7087 8.56338C53.3729 10.0666 53.7171 11.662 53.7171 13.3386V42.6641Z" fill="#00C4A7"/>
<path d="M53.7171 13.3385V42.664C53.7171 49.2486 48.3981 54.6007 41.861 54.6007H12.7517C6.20644 54.6007 0.895508 49.2486 0.895508 42.664V13.3385C0.895508 6.75397 6.20913 1.40186 12.7517 1.40186H41.861C43.2996 1.40186 44.706 1.66188 46.0371 2.1765L33.7695 19.4625L29.7547 11.9571H19.2189L19.2108 12.0032L18.9097 13.7773L19.1221 14.1565L20.5903 16.7783H11.1275L4.10627 44.1673H10.9204L14.8599 32.729H19.3292L23.9947 27.4772H15.4999L16.9305 22.683H23.8818L26.3584 27.1142L13.3486 42.1575L13.2572 42.2551L13.0071 44.1727H23.5107L31.1396 35.202L35.6841 44.1727H46.1474L46.4055 42.3742L38.6798 27.2144L52.7087 8.56058C53.3729 10.0638 53.7171 11.6592 53.7171 13.3358V13.3385Z" fill="#00C4A7"/>
<path d="M119.559 41.4941C119.871 39.8365 118.298 39.6875 117.464 39.6875H115.526L114.272 46.253H116.642C117.249 46.253 119.094 46.0987 119.414 44.3896C119.567 43.6149 119.199 43.0542 118.419 42.8403C119.083 42.5694 119.465 42.0223 119.557 41.4968L119.559 41.4941ZM118.398 44.3869C118.263 45.1425 117.575 45.4378 116.733 45.4378H115.407L115.808 43.3224H117.134C117.983 43.3224 118.548 43.558 118.395 44.3869H118.398ZM118.54 41.4941C118.398 42.2254 117.795 42.5152 116.919 42.5152H115.972L116.356 40.4974H117.316C118.182 40.4974 118.685 40.7682 118.54 41.4968V41.4941Z" fill="#F2F2F2"/>
<path d="M124.254 41.5566L123.8 43.9808C123.504 45.224 122.799 45.5951 122.216 45.5951C121.713 45.5951 121.32 45.4055 121.474 44.6038L122.046 41.5593H121.019L120.436 44.6498C120.231 45.7495 120.64 46.3941 121.689 46.3941C122.555 46.3941 123.192 45.9797 123.539 45.3324L123.367 46.2533H124.394L125.279 41.5566H124.252H124.254Z" fill="#F2F2F2"/>
<path d="M126.884 39.8203L126.706 40.8089H127.879L128.056 39.8203H126.884ZM126.623 41.5565L125.738 46.2531H126.766L127.65 41.5565H126.623Z" fill="#F2F2F2"/>
<path d="M129.485 39.5928L128.227 46.2504H129.254L130.512 39.5928H129.485Z" fill="#F2F2F2"/>
<path d="M132.723 42.369H134.038L134.18 41.5565H132.884L133.161 40.0532L132.204 40.1453L131.935 41.5565H131.074L130.932 42.369H131.781L131.297 44.9259C131.109 45.8712 131.547 46.2504 132.478 46.2504H133.29L133.443 45.4378H132.852C132.335 45.4378 132.152 45.3512 132.263 44.7634L132.717 42.369H132.723Z" fill="#F2F2F2"/>
<path d="M142.024 40.4949L142.174 39.6851H137.856L136.613 46.2506H137.641L138.213 43.2495H140.996L141.147 42.4315H138.367L138.74 40.4949H142.024Z" fill="#F2F2F2"/>
<path d="M144.581 41.4155C143.331 41.4155 141.97 42.2173 141.639 43.9182C141.319 45.6219 142.39 46.3939 143.635 46.3939C144.88 46.3939 146.238 45.6219 146.56 43.9182C146.88 42.2173 145.826 41.4155 144.581 41.4155ZM145.547 43.9155C145.358 44.9177 144.769 45.5921 143.785 45.5921C142.801 45.5921 142.478 44.9177 142.667 43.9155C142.847 42.9161 143.454 42.2146 144.42 42.2146C145.385 42.2146 145.732 42.9188 145.544 43.9155H145.547Z" fill="#F2F2F2"/>
<path d="M150.368 41.5566C149.752 41.5566 149.169 41.9006 148.814 42.548L149.002 41.5566H147.975L147.09 46.2533H148.117L148.518 44.1244C148.741 42.892 149.287 42.3692 150.12 42.3692H150.863L151.005 41.5566H150.371H150.368Z" fill="#F2F2F2"/>
<path d="M158.631 41.5294C158.871 40.2672 158.129 39.5386 156.69 39.5386C155.332 39.5386 154.283 40.2861 154.098 41.2314C153.925 42.1686 154.463 42.7455 155.958 43.0949C157.05 43.3387 157.556 43.6204 157.408 44.4302C157.279 45.0857 156.682 45.5922 155.698 45.5922C154.654 45.5922 154.09 44.9611 154.358 43.6122L153.32 43.7098C152.99 45.4757 153.917 46.3939 155.55 46.3939C157.182 46.3939 158.215 45.576 158.438 44.395C158.669 43.1707 157.817 42.6643 156.343 42.323C155.386 42.1009 155.017 41.83 155.127 41.2341C155.224 40.6491 155.808 40.343 156.539 40.343C157.271 40.343 157.749 40.7953 157.596 41.6296L158.634 41.5321L158.631 41.5294Z" fill="#F2F2F2"/>
<path d="M163.373 41.5566L162.916 43.9808C162.615 45.224 161.907 45.5951 161.332 45.5951C160.834 45.5951 160.436 45.4055 160.59 44.6038L161.162 41.5593H160.135L159.544 44.6498C159.347 45.7495 159.759 46.3941 160.797 46.3941C161.663 46.3941 162.3 45.9797 162.658 45.3324L162.485 46.2533H163.518L164.403 41.5566H163.376H163.373Z" fill="#F2F2F2"/>
<path d="M167.699 42.2148C168.495 42.2148 168.753 42.6644 168.772 43.3849L169.81 43.2928C169.864 41.906 169.078 41.4131 167.849 41.4131C166.621 41.4131 165.238 42.2229 164.918 43.9239C164.598 45.6195 165.65 46.3914 166.903 46.3914C168.156 46.3914 169.095 45.9337 169.568 44.5658L168.567 44.4738C168.28 45.2051 167.836 45.5924 167.064 45.5924C166.08 45.5924 165.757 44.8638 165.935 43.9266C166.115 43.0057 166.723 42.2148 167.699 42.2148Z" fill="#F2F2F2"/>
<path d="M173.244 42.2148C174.04 42.2148 174.29 42.6644 174.317 43.3849L175.355 43.2928C175.409 41.906 174.624 41.4131 173.398 41.4131C172.171 41.4131 170.787 42.2229 170.461 43.9239C170.141 45.6195 171.195 46.3914 172.446 46.3914C173.696 46.3914 174.637 45.9337 175.113 44.5658L174.11 44.4738C173.823 45.2051 173.379 45.5924 172.607 45.5924C171.623 45.5924 171.3 44.8638 171.478 43.9266C171.658 43.0057 172.266 42.2148 173.242 42.2148H173.244Z" fill="#F2F2F2"/>
<path d="M178.92 41.4155C177.716 41.4155 176.328 42.2064 176.005 43.9264C175.672 45.6463 176.756 46.3939 177.971 46.3939C179.187 46.3939 180.152 45.8278 180.475 44.8906L179.493 44.7931C179.351 45.1073 179.025 45.5948 178.124 45.5948C177.224 45.5948 176.828 44.9394 176.987 44.1268H180.655L180.679 43.9291C181.013 42.2091 180.125 41.4182 178.918 41.4182L178.92 41.4155ZM179.805 43.4307H177.121C177.213 42.8917 177.847 42.2173 178.756 42.2173C179.665 42.2173 179.902 42.8917 179.802 43.4307H179.805Z" fill="#F2F2F2"/>
<path d="M185.789 42.8809C185.966 41.9708 185.216 41.4155 184.105 41.4155C182.995 41.4155 182.032 41.9166 181.871 42.7942C181.717 43.5417 182.263 44.0185 183.043 44.1241L183.793 44.2162C184.285 44.2785 184.732 44.4139 184.643 44.9096C184.552 45.3782 184.017 45.5948 183.382 45.5948C182.747 45.5948 182.105 45.2238 182.247 44.4518L181.252 44.5385C181.013 45.7898 182.021 46.3939 183.229 46.3939C184.436 46.3939 185.49 45.8386 185.662 44.8987C185.84 43.9643 185.071 43.558 184.242 43.4578L183.57 43.3576C183.054 43.2953 182.82 43.1355 182.89 42.8077C182.962 42.4123 183.412 42.2146 183.955 42.2146C184.562 42.2146 184.893 42.4746 184.794 42.9811L185.789 42.8809Z" fill="#F2F2F2"/>
<path d="M190.975 42.8809C191.148 41.9708 190.395 41.4155 189.287 41.4155C188.179 41.4155 187.211 41.9166 187.052 42.7942C186.899 43.5417 187.445 44.0185 188.225 44.1241L188.975 44.2162C189.472 44.2785 189.913 44.4139 189.822 44.9096C189.736 45.3782 189.195 45.5948 188.563 45.5948C187.931 45.5948 187.283 45.2238 187.426 44.4518L186.434 44.5385C186.192 45.7898 187.2 46.3939 188.41 46.3939C189.62 46.3939 190.672 45.8386 190.841 44.8987C191.021 43.9643 190.26 43.558 189.421 43.4578L188.76 43.3576C188.23 43.2953 187.999 43.1355 188.071 42.8077C188.144 42.4123 188.598 42.2146 189.133 42.2146C189.741 42.2146 190.075 42.4746 189.975 42.9811L190.975 42.8809Z" fill="#F2F2F2"/>
<path d="M81.7046 18.141V13.5527H65.5029V34.9124H72.0831V26.1827H80.3009V21.8734H72.0831V18.141H81.7019H81.7046Z" fill="#F2F2F2"/>
<path d="M94.5478 19.4353V26.8812C94.5478 28.2896 94.3246 29.2674 93.8755 29.8091C93.4264 30.3508 92.851 30.6244 92.1464 30.6244C91.5011 30.6244 91.0009 30.4212 90.6406 30.0122C90.2856 29.6033 90.1081 28.918 90.1081 27.9429V19.4326H84.1895V29.2809C84.1895 31.3124 84.652 32.8156 85.569 33.788C86.4913 34.7631 87.7632 35.2533 89.3794 35.2533C90.5975 35.2533 91.6194 35.0339 92.4557 34.5978C93.292 34.1618 94.1175 33.4277 94.935 32.3985V34.9066H100.429V19.4326H94.5451L94.5478 19.4353Z" fill="#F2F2F2"/>
<path d="M117.942 27.4581C117.437 26.7214 116.705 26.1526 115.751 25.7544C114.796 25.359 113.339 25.0475 111.381 24.8254C110.09 24.6683 109.249 24.4922 108.867 24.2999C108.479 24.1049 108.286 23.8205 108.286 23.4386C108.286 23.1 108.439 22.8102 108.74 22.5746C109.047 22.3362 109.528 22.217 110.195 22.217C110.862 22.217 111.411 22.3714 111.87 22.6856C112.207 22.9185 112.451 23.2815 112.594 23.7772L118.179 23.2219C117.792 22.2116 117.308 21.4099 116.724 20.8167C116.141 20.2262 115.412 19.7902 114.541 19.5085C113.669 19.2268 112.317 19.0859 110.486 19.0859C108.654 19.0859 107.366 19.2674 106.334 19.6331C105.298 19.996 104.492 20.5458 103.903 21.2853C103.314 22.022 103.021 22.9023 103.021 23.918C103.021 24.8498 103.292 25.6813 103.838 26.4072C104.384 27.1358 105.054 27.6531 105.847 27.9565C106.643 28.2652 108.063 28.593 110.106 28.9559C111.475 29.197 112.319 29.4028 112.637 29.5654C113.08 29.801 113.304 30.1314 113.304 30.554C113.304 30.9332 113.132 31.2474 112.795 31.502C112.362 31.8405 111.749 32.0112 110.959 32.0112C110.235 32.0112 109.657 31.8595 109.224 31.5589C108.791 31.2582 108.453 30.7571 108.211 30.0583L102.367 30.6109C102.703 32.0979 103.467 33.2436 104.661 34.0507C105.85 34.8579 107.848 35.2587 110.652 35.2587C112.639 35.2587 114.207 35.0068 115.361 34.5085C116.514 34.0101 117.359 33.3384 117.891 32.4933C118.426 31.6482 118.695 30.7815 118.695 29.8877C118.695 28.9938 118.443 28.1948 117.934 27.4581H117.942Z" fill="#F2F2F2"/>
<path d="M121.135 19.4355V34.9095H127.021V19.4355H121.135ZM121.135 13.5498V17.5856H127.021V13.5498H121.135Z" fill="#F2F2F2"/>
<path d="M145.216 21.7839C143.642 19.9854 141.316 19.0889 138.243 19.0889C135.554 19.0889 133.419 19.8554 131.835 21.383C130.253 22.9106 129.463 24.8581 129.463 27.2173C129.463 29.7498 130.399 31.8001 132.27 33.3657C133.792 34.6279 135.788 35.259 138.256 35.259C141.023 35.259 143.193 34.5006 144.756 32.9811C146.323 31.4589 147.106 29.5087 147.106 27.1306C147.106 25.0152 146.477 23.233 145.216 21.7839ZM140.375 30.2779C139.829 30.928 139.136 31.253 138.283 31.253C137.431 31.253 136.748 30.9199 136.196 30.2617C135.642 29.6035 135.365 28.5824 135.365 27.201C135.365 25.8196 135.642 24.8283 136.204 24.1647C136.761 23.4984 137.474 23.1652 138.329 23.1652C139.138 23.1652 139.819 23.493 140.37 24.1485C140.918 24.8039 141.193 25.8034 141.193 27.1441C141.193 28.5824 140.921 29.6225 140.375 30.2779Z" fill="#F2F2F2"/>
<path d="M164.211 20.5542C163.292 19.5791 162.014 19.0889 160.388 19.0889C159.183 19.0889 158.158 19.311 157.322 19.7525C156.48 20.194 155.652 20.9307 154.832 21.9599V19.4383H149.352V34.9123H155.238V27.48C155.238 26.0742 155.458 25.0965 155.905 24.5547C156.349 24.0076 156.927 23.7395 157.639 23.7395C158.285 23.7395 158.785 23.9399 159.142 24.3408C159.5 24.7443 159.678 25.4323 159.678 26.402V34.9123H165.591V25.0775C165.591 23.0379 165.128 21.5266 164.211 20.5542Z" fill="#F2F2F2"/>
<path d="M182.628 23.8965L189.225 13.5498H182.082L178.431 20.1235L174.677 13.5498H167.459L174.109 23.78L166.795 34.9095H174.112L178.299 28.0487L182.486 34.9095H189.846L182.626 23.8965H182.628Z" fill="#F2F2F2"/>
</g>
<defs>
<clipPath id="clip0_579_861">
<rect width="191" height="55" fill="white" transform="translate(0 0.5)"/>
</clipPath>
</defs>
</svg>
