<svg width="137" height="48" viewBox="0 0 137 48" fill="none" xmlns="http://www.w3.org/2000/svg">
<path d="M0 8C0 3.58172 3.58172 0 8 0H125.177C130.839 0 134.709 5.71942 132.604 10.9749L119.785 42.9749C118.569 46.0102 115.628 48 112.359 48H8C3.58172 48 0 44.4183 0 40V8Z" fill="url(#paint0_linear_977_1199)"/>
<path d="M87.25 30V19.9968H89.8804V20.7648C90.5972 20.1248 91.4676 19.8048 92.4916 19.8048C93.1444 19.8048 93.7268 19.9392 94.2388 20.208C94.7508 20.464 95.1732 20.8288 95.506 21.3024C95.9156 20.816 96.3956 20.4448 96.946 20.1888C97.5092 19.9328 98.13 19.8048 98.8084 19.8048C99.5636 19.8048 100.223 19.9776 100.786 20.3232C101.362 20.656 101.81 21.1232 102.13 21.7248C102.463 22.3136 102.629 23.0048 102.629 23.7984V30H100.018V24.1824C100.018 23.5296 99.8452 23.0176 99.4996 22.6464C99.154 22.2624 98.6932 22.0704 98.1172 22.0704C97.7204 22.0704 97.3556 22.1536 97.0228 22.32C96.7028 22.4864 96.4276 22.736 96.1972 23.0688C96.21 23.184 96.2228 23.2992 96.2356 23.4144C96.2484 23.5296 96.2548 23.6576 96.2548 23.7984V30H93.6244V24.1824C93.6244 23.5296 93.4516 23.0176 93.106 22.6464C92.7732 22.2624 92.3188 22.0704 91.7428 22.0704C91.346 22.0704 90.9876 22.1472 90.6676 22.3008C90.3604 22.4544 90.098 22.6848 89.8804 22.992V30H87.25Z" fill="#0C1219"/>
<path d="M79.7472 30.192C78.9792 30.192 78.2944 30.0256 77.6928 29.6928C77.104 29.3472 76.6368 28.8736 76.2912 28.272C75.9584 27.6704 75.792 26.9792 75.792 26.1984V19.9968H78.4224V25.8144C78.4224 26.4544 78.608 26.9664 78.9792 27.3504C79.3632 27.7344 79.8752 27.9264 80.5152 27.9264C80.9504 27.9264 81.3408 27.8432 81.6864 27.6768C82.0448 27.4976 82.3392 27.248 82.5696 26.928V19.9968H85.2V30H82.5696V29.1936C81.8016 29.8592 80.8608 30.192 79.7472 30.192Z" fill="#0C1219"/>
<path d="M71.1813 30V19.9968H73.8117V30H71.1813ZM72.4869 18.8064C72.0773 18.8064 71.7253 18.6592 71.4309 18.3648C71.1365 18.0704 70.9893 17.7184 70.9893 17.3088C70.9893 16.8864 71.1365 16.5344 71.4309 16.2528C71.7253 15.9584 72.0773 15.8112 72.4869 15.8112C72.9093 15.8112 73.2613 15.9584 73.5429 16.2528C73.8373 16.5344 73.9845 16.8864 73.9845 17.3088C73.9845 17.7184 73.8373 18.0704 73.5429 18.3648C73.2613 18.6592 72.9093 18.8064 72.4869 18.8064Z" fill="#0C1219"/>
<path d="M53.7812 30V19.9968H56.4117V20.7648C57.1285 20.1248 57.9988 19.8048 59.0229 19.8048C59.6757 19.8048 60.2581 19.9392 60.7701 20.208C61.2821 20.464 61.7045 20.8288 62.0373 21.3024C62.4469 20.816 62.9268 20.4448 63.4772 20.1888C64.0404 19.9328 64.6612 19.8048 65.3396 19.8048C66.0948 19.8048 66.7541 19.9776 67.3173 20.3232C67.8933 20.656 68.3413 21.1232 68.6613 21.7248C68.9941 22.3136 69.1604 23.0048 69.1604 23.7984V30H66.5493V24.1824C66.5493 23.5296 66.3764 23.0176 66.0308 22.6464C65.6852 22.2624 65.2244 22.0704 64.6484 22.0704C64.2516 22.0704 63.8869 22.1536 63.5541 22.32C63.2341 22.4864 62.9589 22.736 62.7285 23.0688C62.7413 23.184 62.754 23.2992 62.7668 23.4144C62.7796 23.5296 62.786 23.6576 62.786 23.7984V30H60.1557V24.1824C60.1557 23.5296 59.9828 23.0176 59.6372 22.6464C59.3044 22.2624 58.8501 22.0704 58.2741 22.0704C57.8773 22.0704 57.5188 22.1472 57.1988 22.3008C56.8916 22.4544 56.6293 22.6848 56.4117 22.992V30H53.7812Z" fill="#0C1219"/>
<path d="M47.4271 30.192C46.4287 30.192 45.5199 29.9616 44.7007 29.5008C43.8943 29.04 43.2543 28.4192 42.7807 27.6384C42.3071 26.8576 42.0703 25.9808 42.0703 25.008C42.0703 24.0352 42.2943 23.1584 42.7423 22.3776C43.2031 21.5968 43.8239 20.976 44.6047 20.5152C45.3855 20.0544 46.2559 19.824 47.2159 19.824C48.1759 19.824 49.0271 20.0608 49.7695 20.5344C50.5119 21.008 51.0943 21.648 51.5167 22.4544C51.9519 23.2608 52.1695 24.176 52.1695 25.2V25.8912H44.7583C44.8735 26.288 45.0591 26.6464 45.3151 26.9664C45.5839 27.2864 45.9103 27.536 46.2943 27.7152C46.6911 27.8944 47.1135 27.984 47.5615 27.984C48.0095 27.984 48.4191 27.9136 48.7903 27.7728C49.1743 27.632 49.5007 27.4336 49.7695 27.1776L51.4975 28.752C50.8831 29.2512 50.2495 29.616 49.5967 29.8464C48.9567 30.0768 48.2335 30.192 47.4271 30.192ZM44.7199 24.0096H49.5775C49.4879 23.6128 49.3215 23.2672 49.0783 22.9728C48.8479 22.6656 48.5663 22.4288 48.2335 22.2624C47.9135 22.0832 47.5551 21.9936 47.1583 21.9936C46.7487 21.9936 46.3775 22.0768 46.0447 22.2432C45.7247 22.4096 45.4495 22.6464 45.2191 22.9536C44.9887 23.248 44.8223 23.6 44.7199 24.0096Z" fill="#0C1219"/>
<path d="M35.0869 30V19.9968H37.7173V21.1104C38.0373 20.6752 38.4213 20.3424 38.8693 20.112C39.3173 19.8816 39.8229 19.7664 40.3861 19.7664C40.8725 19.7792 41.2373 19.856 41.4805 19.9968V22.3008C41.2885 22.2112 41.0773 22.1472 40.8469 22.1088C40.6165 22.0576 40.3797 22.032 40.1365 22.032C39.6245 22.032 39.1573 22.16 38.7349 22.416C38.3125 22.672 37.9733 23.0368 37.7173 23.5104V30H35.0869Z" fill="#0C1219"/>
<path d="M22.21 30V16.56H28.9492C29.8324 16.56 30.6068 16.7392 31.2724 17.0976C31.9508 17.456 32.482 17.9552 32.866 18.5952C33.2628 19.2224 33.4612 19.952 33.4612 20.784C33.4612 21.5776 33.2628 22.288 32.866 22.9152C32.482 23.5424 31.9508 24.0352 31.2724 24.3936C30.594 24.752 29.8196 24.9312 28.9492 24.9312H24.994V30H22.21ZM24.994 22.6272H28.642C29.2436 22.6272 29.7236 22.4608 30.082 22.128C30.4532 21.7952 30.6388 21.3536 30.6388 20.8032C30.6388 20.24 30.4532 19.792 30.082 19.4592C29.7236 19.1264 29.2436 18.96 28.642 18.96H24.994V22.6272Z" fill="#0C1219"/>
<defs>
<linearGradient id="paint0_linear_977_1199" x1="0" y1="24" x2="137" y2="24" gradientUnits="userSpaceOnUse">
<stop stop-color="#FFEEEE"/>
<stop offset="1" stop-color="#DDEFBB"/>
</linearGradient>
</defs>
</svg>
