<svg width="85" height="48" viewBox="0 0 85 48" fill="none" xmlns="http://www.w3.org/2000/svg">
<path d="M0 8C0 3.58172 3.58172 0 8 0H74.7683C79.9683 0 83.7864 4.8831 82.5321 9.9296L74.5789 41.9296C73.6925 45.4961 70.4901 48 66.8151 48H8.00001C3.58173 48 0 44.4183 0 40V8Z" fill="url(#paint0_linear_977_1159)"/>
<path d="M46.4079 30.192C45.4095 30.192 44.5071 29.9616 43.7007 29.5008C42.8943 29.04 42.2543 28.4192 41.7807 27.6384C41.3071 26.8576 41.0703 25.9808 41.0703 25.008C41.0703 24.0352 41.3007 23.1584 41.7615 22.3776C42.2351 21.584 42.8751 20.9568 43.6815 20.496C44.5007 20.0352 45.4095 19.8048 46.4079 19.8048C47.4063 19.8048 48.3087 20.0352 49.1151 20.496C49.9343 20.9568 50.5743 21.584 51.0351 22.3776C51.5087 23.1584 51.7455 24.0352 51.7455 25.008C51.7455 25.9808 51.5087 26.8576 51.0351 27.6384C50.5743 28.4192 49.9407 29.04 49.1343 29.5008C48.3279 29.9616 47.4191 30.192 46.4079 30.192ZM46.4079 27.9072C46.9327 27.9072 47.3999 27.7792 47.8095 27.5232C48.2319 27.2672 48.5647 26.9216 48.8079 26.4864C49.0639 26.0384 49.1919 25.5456 49.1919 25.008C49.1919 24.4576 49.0639 23.9648 48.8079 23.5296C48.5647 23.0944 48.2319 22.7488 47.8095 22.4928C47.3999 22.224 46.9327 22.0896 46.4079 22.0896C45.8959 22.0896 45.4287 22.224 45.0063 22.4928C44.5839 22.7488 44.2511 23.0944 44.0079 23.5296C43.7647 23.9648 43.6431 24.4576 43.6431 25.008C43.6431 25.5456 43.7647 26.0384 44.0079 26.4864C44.2511 26.9216 44.5839 27.2672 45.0063 27.5232C45.4287 27.7792 45.8959 27.9072 46.4079 27.9072Z" fill="#0C1219"/>
<path d="M34.0869 30V19.9968H36.7173V21.1104C37.0373 20.6752 37.4213 20.3424 37.8693 20.112C38.3173 19.8816 38.8229 19.7664 39.3861 19.7664C39.8725 19.7792 40.2373 19.856 40.4805 19.9968V22.3008C40.2885 22.2112 40.0773 22.1472 39.8469 22.1088C39.6165 22.0576 39.3797 22.032 39.1365 22.032C38.6245 22.032 38.1573 22.16 37.7349 22.416C37.3125 22.672 36.9733 23.0368 36.7173 23.5104V30H34.0869Z" fill="#0C1219"/>
<path d="M21.21 30V16.56H27.9492C28.8324 16.56 29.6068 16.7392 30.2724 17.0976C30.9508 17.456 31.482 17.9552 31.866 18.5952C32.2628 19.2224 32.4612 19.952 32.4612 20.784C32.4612 21.5776 32.2628 22.288 31.866 22.9152C31.482 23.5424 30.9508 24.0352 30.2724 24.3936C29.594 24.752 28.8196 24.9312 27.9492 24.9312H23.994V30H21.21ZM23.994 22.6272H27.642C28.2436 22.6272 28.7236 22.4608 29.082 22.128C29.4532 21.7952 29.6388 21.3536 29.6388 20.8032C29.6388 20.24 29.4532 19.792 29.082 19.4592C28.7236 19.1264 28.2436 18.96 27.642 18.96H23.994V22.6272Z" fill="#0C1219"/>
<defs>
<linearGradient id="paint0_linear_977_1159" x1="0" y1="24" x2="85" y2="24" gradientUnits="userSpaceOnUse">
<stop stop-color="#E65C00"/>
<stop offset="1" stop-color="#F9D423"/>
</linearGradient>
</defs>
</svg>
