<svg width="94" height="94" viewBox="0 0 94 94" fill="none" xmlns="http://www.w3.org/2000/svg">
<circle opacity="0.2" cx="46.5" cy="38.5" r="38.5" fill="url(#paint0_linear_691_7446)" fill-opacity="0.4"/>
<path d="M50.6941 19.6022C50.6941 21.6401 49.0381 23.2961 47.0002 23.2961C44.9623 23.2961 43.3063 21.6401 43.3063 19.6022C43.3063 17.5643 44.9623 15.9083 47.0002 15.9083C49.0381 15.9083 50.6941 17.5643 50.6941 19.6022ZM47.0002 7.40052C40.2715 7.40052 34.7986 12.8735 34.7986 19.6022C34.7986 23.9956 37.1798 28.0677 41.0114 30.2304C41.4428 30.4746 41.7109 30.9336 41.7109 31.4293V34.297H45.6232V25.9013C42.728 25.2679 40.5524 22.6847 40.5524 19.6022C40.5524 16.046 43.444 13.1544 47.0002 13.1544C50.5564 13.1544 53.448 16.046 53.448 19.6022C53.448 22.6847 51.2743 25.2679 48.3771 25.9013V34.297H52.2895V31.4293C52.2895 30.9336 52.5576 30.4746 52.989 30.2304C56.8206 28.0677 59.2018 23.9956 59.2018 19.6022C59.2018 12.8735 53.7271 7.40052 47.0002 7.40052ZM42.4452 45.129C43.0364 47.0843 44.854 48.5127 47.0002 48.5127C49.1464 48.5127 50.964 47.0843 51.5552 45.129H42.4452ZM41.7109 37.8936V41.582C41.7109 42.0135 42.0744 42.3788 42.5058 42.3788H51.4927C51.9242 42.3788 52.2895 42.0135 52.2895 41.582V37.8936H41.7109ZM63.3914 27.281C62.8537 27.8187 62.8537 28.6906 63.3914 29.2282L66.2147 32.0515C66.4835 32.3203 66.836 32.4548 67.1883 32.4548C67.5407 32.4548 67.8932 32.3204 68.1619 32.0515C68.6997 31.5137 68.6997 30.6418 68.1619 30.1043L65.3386 27.281C64.8011 26.7434 63.929 26.7434 63.3914 27.281ZM66.5702 19.5937C66.5702 20.3542 67.1867 20.9707 67.9471 20.9707H71.9401C72.7006 20.9707 73.3171 20.3542 73.3171 19.5937C73.3171 18.8333 72.7006 18.2168 71.9401 18.2168H67.9471C67.1867 18.2168 66.5702 18.8333 66.5702 19.5937ZM64.3559 12.3135C64.7082 12.3135 65.0607 12.1791 65.3295 11.9101L68.1528 9.08683C68.6905 8.54909 68.6905 7.6772 68.1528 7.13964C67.615 6.60189 66.7431 6.60189 66.2056 7.13964L63.3823 9.96294C62.8445 10.5007 62.8445 11.3726 63.3823 11.9101C63.651 12.1791 64.0034 12.3135 64.3559 12.3135ZM28.6618 27.281L25.8383 30.1043C25.3005 30.642 25.3005 31.5137 25.8383 32.0515C26.107 32.3204 26.4595 32.4548 26.8119 32.4548C27.1642 32.4548 27.5167 32.3204 27.7855 32.0515L30.6089 29.2282C31.1467 28.6904 31.1467 27.8187 30.6089 27.281C30.0714 26.7432 29.1995 26.7432 28.6618 27.281ZM22.0605 20.9707H26.0534C26.8139 20.9707 27.4304 20.3542 27.4304 19.5937C27.4304 18.8333 26.8139 18.2168 26.0534 18.2168H22.0605C21.3 18.2168 20.6835 18.8333 20.6835 19.5937C20.6835 20.3542 21.3 20.9707 22.0605 20.9707ZM28.6709 11.9103C28.9397 12.1791 29.2922 12.3137 29.6445 12.3137C29.9968 12.3137 30.3493 12.1793 30.6181 11.9103C31.1559 11.3726 31.1559 10.5007 30.6181 9.96313L27.7948 7.13982C27.2571 6.60208 26.3852 6.60208 25.8476 7.13982C25.3099 7.67757 25.3099 8.54945 25.8476 9.08702L28.6709 11.9103ZM53.4664 61.054C53.0827 61.054 52.7155 60.8924 52.4548 60.6115L48.3771 56.1979V87.2638H78.134V61.054H53.4664ZM41.5456 60.6115C41.2849 60.8924 40.9177 61.054 40.534 61.054H15.8664V87.2638H45.6232V56.1979L41.5456 60.6115ZM15.0934 54.0554L11.1719 58.3001H39.9318L43.8534 54.0554H15.0934ZM78.907 54.0554H50.147L54.0686 58.3001H82.8285L78.907 54.0554Z" fill="url(#paint1_linear_691_7446)"/>
<defs>
<linearGradient id="paint0_linear_691_7446" x1="46.5" y1="0" x2="46.5" y2="77" gradientUnits="userSpaceOnUse">
<stop stop-color="white"/>
<stop offset="1" stop-color="#050811"/>
</linearGradient>
<linearGradient id="paint1_linear_691_7446" x1="25.5919" y1="92.8786" x2="73.3819" y2="10.1039" gradientUnits="userSpaceOnUse">
<stop offset="0.33" stop-color="#52C5DC"/>
<stop offset="0.63" stop-color="#3C99D4"/>
<stop offset="0.895" stop-color="#3E7ABC"/>
</linearGradient>
</defs>
</svg>
