<svg width="24" height="24" viewBox="0 0 24 24" fill="none" xmlns="http://www.w3.org/2000/svg">
<path d="M21.8697 3.80264L20.1897 6.37514L18.8022 8.50889L12.446 18.2589C12.008 19.0353 11.4235 19.7192 10.7247 20.2726C10.2229 20.6092 9.64272 20.8106 9.04029 20.8573C8.43785 20.9039 7.83358 20.7942 7.28595 20.5389C6.50136 20.1004 5.80972 19.5132 5.2497 18.8101L2.4747 15.7201C1.78095 14.9476 1.8747 13.5864 3.1422 13.5001C3.72973 13.5189 4.30121 13.6965 4.79595 14.0139L7.42096 15.3976C7.75419 15.6176 8.14681 15.7301 8.54595 15.7201C8.96426 15.6137 9.33589 15.3726 9.60345 15.0339L17.6247 6.87389L19.2597 5.20514L20.9585 3.46889C21.0321 3.39526 21.1124 3.32872 21.1985 3.27014C21.4272 3.11264 21.6935 3.03764 21.8697 3.27014C21.9232 3.34861 21.9519 3.4414 21.9519 3.53639C21.9519 3.63138 21.9232 3.72416 21.8697 3.80264Z" fill="#FFB600"/>
</svg>
