<svg width="32" height="32" viewBox="0 0 32 32" fill="none" xmlns="http://www.w3.org/2000/svg">
<path d="M3.78928 25.3818L3.86573 21.7092C3.87963 21.0781 3.64054 20.4678 3.20404 20.0132L0.661531 17.3623C-0.2476 16.4143 -0.215628 14.9088 0.732427 13.9996L3.38337 11.4571C3.83932 11.0206 4.10205 10.4215 4.11456 9.79038L4.19102 6.11771C4.21882 4.80406 5.30589 3.76287 6.61815 3.78928L10.2908 3.86573C10.9219 3.87963 11.5322 3.64054 11.9868 3.20404L14.6377 0.661531C15.5857 -0.2476 17.0912 -0.215628 18.0004 0.732427L20.5429 3.38337C20.9794 3.83932 21.5785 4.10205 22.2096 4.11456L25.8823 4.19102C27.1959 4.21882 28.2371 5.30589 28.2107 6.61815L28.1343 10.2908C28.1204 10.9219 28.3595 11.5322 28.796 11.9868L31.3385 14.6377C32.2476 15.5857 32.2156 17.0912 31.2676 18.0004L28.6166 20.5429C28.1607 20.9794 27.8979 21.5785 27.8854 22.2096L27.809 25.8823C27.7812 27.1959 26.6941 28.2371 25.3818 28.2107L21.7092 28.1343C21.0781 28.1204 20.4678 28.3595 20.0132 28.796L17.3623 31.3385C16.4143 32.2476 14.9088 32.2156 13.9996 31.2676L11.4571 28.6166C11.0206 28.1607 10.4215 27.8979 9.79038 27.8854L6.11771 27.809C4.80406 27.7812 3.76287 26.6941 3.78928 25.3818Z" fill="url(#paint0_linear_579_1041)"/>
<path d="M14.5824 20.6721C14.2738 20.6721 13.9652 20.554 13.7289 20.319L9.64054 16.2307C9.1693 15.7595 9.1693 14.9949 9.64054 14.525C10.1118 14.0538 10.8764 14.0538 11.3462 14.525L14.581 17.7598L20.6558 11.6864C21.127 11.2152 21.8916 11.2152 22.3614 11.6864C22.8327 12.1577 22.8327 12.9222 22.3614 13.3921L15.4345 20.319C15.1996 20.5553 14.8896 20.6721 14.581 20.6721H14.5824Z" fill="url(#paint1_linear_579_1041)"/>
<defs>
<linearGradient id="paint0_linear_579_1041" x1="25.6449" y1="32.1293" x2="6.8666" y2="0.720888" gradientUnits="userSpaceOnUse">
<stop offset="0.14" stop-color="#FCC410"/>
<stop offset="0.22" stop-color="#FCCA22"/>
<stop offset="0.35" stop-color="#FDD33A"/>
<stop offset="0.49" stop-color="#FEDA4C"/>
<stop offset="0.64" stop-color="#FEDD56"/>
<stop offset="0.82" stop-color="#FFDF5A"/>
</linearGradient>
<linearGradient id="paint1_linear_579_1041" x1="16.2019" y1="20.408" x2="15.871" y2="9.71249" gradientUnits="userSpaceOnUse">
<stop stop-color="#674F00"/>
<stop offset="0.24" stop-color="#5D4900"/>
<stop offset="0.72" stop-color="#231A05"/>
</linearGradient>
</defs>
</svg>
